<?xml version="1.0" encoding="utf-8"?>
<svg width="512" height="512" viewBox="0 0 512 512" xmlns="http://www.w3.org/2000/svg"
     xmlns:xlink="http://www.w3.org/1999/xlink">
    <defs>
	
	<svg id="svg-1" enable-background="new 0 0 300 300" height="300px" id="Layer_1" version="1.1" viewBox="0 0 300 300" width="300px" xml:space="preserve" xmlns="http://www.w3.org/2000/svg" xmlns:xlink="http://www.w3.org/1999/xlink"><g><path d="M150.518,14.797c-74.561,0-135,60.442-135,135c0,74.561,60.439,135,135,135c74.556,0,135-60.439,135-135   C285.518,75.24,225.073,14.797,150.518,14.797z M150.518,265.708c-64.017,0-115.912-51.897-115.912-115.91   c0-64.014,51.895-115.909,115.912-115.909c64.014,0,115.909,51.895,115.909,115.909   C266.427,213.811,214.531,265.708,150.518,265.708z" fill="#334E61"/><circle cx="150.516" cy="149.798" fill="#334E61" r="104.428"/><g><polygon fill="#FFFFFF" points="109.722,205.66 92.256,210.906 96.447,193.147 100.638,175.393 113.919,187.91 127.198,200.416       "/><polygon fill="#FFFFFF" points="133.376,194.11 106.716,169.1 182.121,88.691 208.779,113.704   "/></g></g></svg>	
	
	<svg id="svg-2" enable-background="new 0 0 300 300" height="300px" id="Layer_1" version="1.1" viewBox="0 0 300 300" width="300px" xml:space="preserve" xmlns="http://www.w3.org/2000/svg" xmlns:xlink="http://www.w3.org/1999/xlink"><g><path d="M150.52,14.524c-74.787,0-135.41,60.627-135.41,135.414c0,74.779,60.623,135.406,135.41,135.406   c74.782,0,135.409-60.627,135.409-135.406C285.929,75.151,225.302,14.524,150.52,14.524z M150.52,266.199   c-64.211,0-116.264-52.059-116.264-116.262c0-64.211,52.052-116.261,116.264-116.261c64.207,0,116.261,52.05,116.261,116.261   C266.78,214.141,214.727,266.199,150.52,266.199z" fill="#A3D179"/><path d="M255.264,149.934c0,57.852-46.897,104.744-104.744,104.744c-57.852,0-104.747-46.893-104.747-104.744   c0-57.851,46.895-104.744,104.747-104.744C208.366,45.189,255.264,92.083,255.264,149.934z" fill="#A3D179"/><polygon fill="#FFFFFF" points="137.202,211.401 81.978,125.994 81.978,124.92 133.718,148.3 219.059,88.466  "/></g></svg>
	
	<svg id="svg-3" enable-background="new 0 0 300 300" height="300px" id="Layer_1" version="1.1" viewBox="0 0 300 300" width="300px" xml:space="preserve" xmlns="http://www.w3.org/2000/svg" xmlns:xlink="http://www.w3.org/1999/xlink"><g><path d="M150.755,14.798c-74.554,0-134.994,60.441-134.994,134.999c0,74.562,60.44,135.001,134.994,135.001   c74.562,0,135.005-60.439,135.005-135.001C285.761,75.24,225.317,14.798,150.755,14.798z M150.755,265.708   c-64.01,0-115.912-51.897-115.912-115.911c0-64.013,51.902-115.908,115.912-115.908c64.018,0,115.912,51.895,115.912,115.908   C266.667,213.811,214.773,265.708,150.755,265.708z" fill="#D77E47"/><path d="M255.192,149.797c0,57.677-46.76,104.433-104.437,104.433S46.33,207.474,46.33,149.797   c0-57.674,46.748-104.428,104.425-104.428S255.192,92.123,255.192,149.797z" fill="#D77E47"/><path d="M172.602,86.568c-25.56,0-46.287,20.719-46.287,46.292c0,6.363,1.283,12.429,3.613,17.954l-47.301,42.181   l17.872,20.033l46.6-41.554c7.327,4.828,16.082,7.668,25.504,7.668c25.571,0,46.29-20.719,46.29-46.282   C218.892,107.295,198.173,86.568,172.602,86.568z M171.951,163.361c-16.207,0-29.337-13.133-29.337-29.338   c0-16.203,13.13-29.34,29.337-29.34c16.203,0,29.338,13.137,29.338,29.34C201.289,150.228,188.154,163.361,171.951,163.361z" fill="#FFFFFF"/></g></svg>		
	
	<svg id="svg-4" enable-background="new 0 0 300 300" height="300px" id="Layer_1" version="1.1" viewBox="0 0 300 300" width="300px" xml:space="preserve" xmlns="http://www.w3.org/2000/svg" xmlns:xlink="http://www.w3.org/1999/xlink"><g><path d="M150.52,15.398c-74.562,0-135.001,60.442-135.001,135.001c0,74.555,60.439,135.003,135.001,135.003   c74.557,0,135.001-60.448,135.001-135.003C285.521,75.84,225.076,15.398,150.52,15.398z M150.52,266.312   c-64.018,0-115.913-51.897-115.913-115.913S86.502,34.49,150.52,34.49c64.013,0,115.91,51.894,115.91,115.909   S214.532,266.312,150.52,266.312z" fill="#44B39B"/><path d="M254.947,150.401c0,57.672-46.756,104.424-104.428,104.424c-57.677,0-104.43-46.752-104.43-104.424   c0-57.676,46.753-104.432,104.43-104.432C208.191,45.969,254.947,92.725,254.947,150.401z" fill="#44B39B"/><polygon fill="#FFFFFF" points="196.328,220.879 150.523,196.796 104.72,220.871 113.465,169.872 76.405,133.759 127.623,126.317    150.52,79.918 173.424,126.317 224.631,133.759 187.573,169.872  "/></g></svg>		
	
	<svg id="svg-5" enable-background="new 0 0 300 300" height="300px" id="Layer_1" version="1.1" viewBox="0 0 300 300" width="300px" xml:space="preserve" xmlns="http://www.w3.org/2000/svg" xmlns:xlink="http://www.w3.org/1999/xlink"><g><path d="M151.338,14.8c-74.557,0-134.996,60.44-134.996,135.002c0,74.554,60.439,134.998,134.996,134.998   c74.556,0,135.004-60.443,135.004-134.998C286.342,75.241,225.894,14.8,151.338,14.8z M151.338,265.714   c-64.013,0-115.908-51.901-115.908-115.912c0-64.018,51.895-115.911,115.908-115.911c64.016,0,115.909,51.894,115.909,115.911   C267.247,213.813,215.354,265.714,151.338,265.714z" fill="#BF3D27"/><circle cx="151.341" cy="149.802" fill="#BF3D27" r="104.428"/><polygon fill="#FFFFFF" points="213.878,180.6 182.131,212.344 151.338,181.547 120.541,212.344 88.799,180.6 119.586,149.802    88.799,119.013 120.541,87.256 151.338,118.058 182.131,87.256 213.878,119.013 183.077,149.802  "/></g></svg>		
		
    </defs>
</svg>
